<?xml version="1.0" standalone="no"?>
<!DOCTYPE svg PUBLIC "-//W3C//DTD SVG 20010904//EN"
 "http://www.w3.org/TR/2001/REC-SVG-20010904/DTD/svg10.dtd">
<svg version="1.0" xmlns="http://www.w3.org/2000/svg"
 width="1600.000000pt" height="414.000000pt" viewBox="0 0 1600.000000 414.000000"
 preserveAspectRatio="xMidYMid meet">
<metadata>
Created by potrace 1.12, written by Peter Selinger 2001-2015
</metadata>
<g transform="translate(0.000000,414.000000) scale(0.100000,-0.100000)"
fill="#000000" stroke="none">
<path d="M2020 3649 c-540 -61 -1023 -388 -1282 -868 -223 -412 -256 -922 -89
-1365 139 -370 419 -689 770 -878 445 -241 993 -259 1460 -49 505 226 857 682
957 1236 24 138 24 412 0 550 -127 704 -664 1240 -1361 1360 -113 20 -344 27
-455 14z m256 -190 c23 -42 29 -47 35 -32 4 10 8 30 8 46 1 18 6 27 17 27 14
0 16 -8 10 -46 -3 -26 -6 -66 -6 -90 0 -65 -27 -59 -67 14 l-33 57 0 -52 c0
-44 -3 -53 -17 -53 -16 0 -18 9 -15 77 2 43 5 84 7 91 9 26 35 10 61 -39z
m182 20 c42 -14 59 -57 43 -109 -13 -45 -35 -60 -83 -60 -58 0 -61 7 -47 99
14 89 19 94 87 70z m-504 -15 c20 -19 20 -48 2 -67 -13 -13 -11 -18 15 -43 16
-15 29 -31 29 -36 0 -18 -46 -6 -72 19 l-27 26 6 -37 c5 -35 4 -38 -17 -34
-20 3 -25 13 -40 86 l-16 82 30 9 c47 14 73 12 90 -5z m765 -53 c10 -7 11 -13
1 -31 -6 -12 -9 -28 -6 -36 9 -24 33 -16 46 16 13 32 17 34 39 21 12 -8 9 -22
-16 -87 -33 -82 -39 -89 -62 -75 -12 8 -12 14 -2 39 7 17 10 36 6 41 -12 21
-33 11 -46 -21 -16 -43 -14 -41 -37 -29 -19 10 -18 12 12 90 31 80 39 89 65
72z m-1086 -107 c51 -102 41 -116 -44 -64 -27 16 -49 27 -49 25 0 -3 9 -23 20
-45 24 -47 24 -50 5 -50 -13 0 -85 130 -85 152 0 19 37 13 77 -12 26 -16 49
-28 51 -25 2 2 -5 20 -17 40 -20 34 -21 55 -3 55 4 0 24 -34 45 -76z m1360
-32 c25 -22 21 -59 -8 -78 -22 -14 -30 -15 -53 -5 -22 11 -28 10 -39 -5 -7
-10 -13 -21 -13 -26 0 -10 -21 -10 -38 1 -11 6 -7 20 19 62 66 110 56 101 87
82 15 -9 35 -23 45 -31z m-1455 -119 c-13 -16 -40 -17 -55 -2 -17 17 -47 -5
-48 -34 0 -36 -80 -100 -114 -92 -38 9 -81 59 -81 96 0 41 53 97 75 79 21 -17
19 -30 -5 -30 -41 0 -38 -68 5 -96 29 -19 61 -11 68 17 3 12 10 18 16 14 15
-9 14 0 -9 80 -17 64 -18 71 -3 82 13 10 28 3 89 -44 57 -44 71 -60 62 -70z
m955 24 c432 -115 766 -449 885 -887 24 -88 26 -111 26 -300 0 -192 -2 -211
-27 -302 -84 -303 -262 -552 -517 -720 -201 -133 -421 -198 -669 -198 -326 0
-610 114 -842 337 -181 174 -286 353 -350 599 -21 79 -24 110 -23 289 0 185 2
207 27 297 71 257 220 489 417 650 139 112 341 209 520 247 80 18 123 20 275
17 155 -3 194 -7 278 -29z m676 -31 c9 -10 4 -30 -19 -84 -33 -77 -35 -86 -20
-77 6 3 14 -5 19 -18 12 -31 23 -38 40 -28 9 6 10 17 3 42 -13 50 0 79 38 79
46 0 91 -56 60 -75 -6 -3 -15 6 -20 20 -6 15 -16 25 -23 22 -13 -4 -13 -20 -3
-62 7 -29 -22 -65 -54 -65 -11 0 -42 22 -70 50 -43 40 -50 52 -41 67 16 29
-14 55 -45 41 -17 -8 -28 -8 -35 -1 -7 7 15 25 68 56 89 52 87 52 102 33z
m-2008 -116 c12 -7 19 -21 19 -39 0 -25 4 -29 40 -35 22 -3 40 -10 40 -15 0
-19 -28 -30 -66 -25 l-39 6 25 -21 c23 -19 24 -21 8 -37 -15 -16 -21 -13 -82
42 l-67 59 40 38 c43 40 52 43 82 27z m-121 -105 c0 -3 -8 -17 -17 -32 -16
-24 -16 -26 2 -39 16 -12 20 -11 33 7 10 14 18 17 25 10 7 -7 6 -15 -3 -26
-11 -13 -11 -19 4 -33 16 -16 18 -15 37 11 18 24 39 29 39 9 0 -4 -22 -37 -48
-73 l-48 -66 -49 24 -48 25 32 -41 c41 -52 34 -64 -33 -56 l-51 6 45 -27 c25
-15 46 -28 48 -29 1 -1 -5 -18 -13 -38 -12 -28 -21 -37 -39 -37 -32 0 -46 -38
-21 -56 11 -8 15 -20 11 -30 -5 -13 -19 -6 -74 42 -37 32 -69 59 -70 60 -2 1
-1 12 3 23 6 19 12 20 91 14 46 -3 84 -4 84 -1 0 3 -29 23 -65 44 -35 22 -65
44 -65 50 0 25 28 35 76 28 l48 -7 -32 41 c-35 44 -38 52 -21 69 8 8 32 2 86
-23 42 -19 78 -33 80 -30 3 3 -24 26 -59 51 -34 26 -65 48 -67 50 -6 7 54 85
67 85 6 0 12 -2 12 -5z m2415 -105 c48 -53 -5 -140 -85 -140 -44 0 -70 26 -70
70 0 69 111 119 155 70z m170 -387 c0 -16 -19 -36 -70 -73 -76 -54 -75 -55 8
-39 50 10 57 15 57 35 0 13 6 24 13 24 15 0 42 -103 32 -120 -10 -17 -25 -11
-25 10 0 24 2 24 -79 5 -73 -17 -75 -16 -85 48 -5 30 -3 42 10 51 25 19 14 50
-19 54 -16 2 -27 9 -27 18 0 12 16 14 93 12 88 -3 92 -4 92 -25z m-2746 -89
c37 -31 39 -61 9 -99 -19 -25 -26 -27 -70 -23 -60 6 -88 30 -88 75 0 72 87
100 149 47z m-11 -150 c38 -8 24 -33 -33 -61 -59 -29 -56 -41 13 -42 23 -1 32
-6 32 -17 0 -14 -8 -16 -52 -10 -29 3 -70 6 -90 6 -31 0 -38 4 -38 20 0 14 17
28 58 49 52 28 55 30 27 31 -45 1 -75 11 -75 25 0 9 17 12 68 8 37 -2 77 -6
90 -9z m2802 -54 c39 -39 21 -101 -35 -120 -68 -22 -125 11 -125 71 0 61 114
95 160 49z m-42 -150 c55 0 62 -2 62 -20 0 -13 -17 -29 -51 -48 l-50 -29 51
-7 c33 -4 50 -11 47 -19 -2 -7 -11 -12 -20 -11 -9 0 -48 1 -87 2 -62 2 -70 4
-70 21 0 13 17 29 52 48 l51 28 -49 8 c-55 9 -59 11 -49 27 4 7 17 9 29 6 11
-3 49 -6 84 -6z m-99 -522 c-5 -18 -9 -34 -9 -35 0 -2 17 6 37 17 40 21 73 26
73 10 0 -19 -61 -78 -88 -85 -31 -8 -52 -23 -52 -38 0 -5 9 -2 19 7 11 10 39
20 63 23 l43 6 -16 -24 c-22 -33 -77 -69 -105 -69 -13 0 -28 -8 -33 -19 -10
-18 -10 -18 26 0 39 20 83 25 83 10 0 -19 -55 -62 -94 -72 -22 -6 -47 -13 -53
-15 -7 -2 -13 -8 -13 -13 0 -6 15 -4 35 5 39 16 85 19 85 5 0 -5 -14 -21 -30
-35 -26 -22 -53 -31 -119 -39 -8 -1 -16 -8 -19 -15 -3 -11 0 -12 16 -3 11 6
40 11 63 11 l42 0 -19 -21 c-29 -32 -68 -49 -113 -49 -22 0 -42 -4 -45 -9 -3
-5 16 -8 42 -7 26 0 49 -3 51 -9 8 -18 -48 -48 -106 -55 l-58 -7 47 -2 c26 0
50 -5 53 -11 12 -19 -58 -50 -115 -51 -58 -1 -58 -4 3 -14 20 -3 37 -10 37
-14 0 -18 -72 -42 -115 -40 -24 2 -47 0 -51 -4 -4 -4 6 -7 22 -8 16 0 38 -4
49 -8 18 -7 17 -10 -14 -25 -23 -12 -50 -17 -87 -14 -61 3 -72 -6 -19 -16 82
-16 12 -50 -85 -42 -62 5 -63 4 -26 -7 22 -7 41 -18 43 -24 8 -24 -97 -29
-162 -9 -11 4 -1 -3 23 -16 23 -12 42 -25 42 -29 0 -18 -91 -21 -133 -5 -59
22 -81 20 -31 -3 56 -25 61 -38 20 -45 -41 -8 -80 0 -121 25 -21 12 -35 15
-45 9 -12 -8 -11 -10 6 -10 27 0 76 -38 68 -52 -10 -16 -101 -2 -133 22 -16
11 -40 19 -53 19 -20 -1 -21 -2 -3 -6 26 -7 75 -42 75 -54 0 -14 -78 -11 -109
5 -15 8 -33 22 -40 30 -8 9 -25 16 -40 15 l-26 0 25 -10 c28 -11 70 -48 70
-61 0 -27 -134 16 -146 47 -6 16 -44 22 -44 7 0 -5 9 -17 20 -27 30 -27 16
-30 -18 -5 l-30 23 -32 -23 c-36 -25 -50 -22 -20 5 11 10 20 22 20 27 0 14
-27 9 -41 -9 -29 -35 -149 -71 -149 -45 0 13 42 50 70 61 l25 10 -26 0 c-15 1
-32 -6 -40 -15 -7 -8 -25 -22 -40 -30 -31 -16 -109 -19 -109 -5 0 13 50 48 75
53 17 3 18 5 3 10 -9 4 -29 -3 -48 -17 -35 -26 -108 -42 -137 -30 -16 6 -15 9
10 31 15 13 38 24 50 24 17 0 19 2 7 10 -10 6 -24 3 -45 -9 -41 -25 -80 -33
-121 -25 -41 7 -36 20 20 45 50 23 28 25 -31 3 -42 -16 -133 -13 -133 5 0 4
19 17 43 29 23 13 33 20 22 16 -65 -20 -170 -15 -162 9 2 6 21 17 43 24 38 12
37 12 -23 6 -93 -8 -168 28 -88 43 53 10 42 19 -19 16 -37 -3 -64 2 -87 14
-31 15 -32 18 -14 25 11 4 33 8 49 8 16 1 26 4 22 8 -4 4 -27 6 -51 4 -43 -2
-115 22 -115 40 0 4 17 11 38 14 60 10 60 13 2 14 -57 1 -127 32 -115 51 3 6
27 11 53 11 l47 2 -58 7 c-58 7 -112 36 -106 55 2 6 25 9 51 9 26 -1 45 2 42
7 -3 5 -23 9 -45 9 -45 0 -84 17 -114 50 l-20 22 50 -4 c28 -3 59 -8 70 -13
18 -8 19 -7 6 8 -7 9 -26 17 -42 17 -50 0 -129 44 -129 72 0 13 47 9 85 -6 20
-9 35 -11 35 -5 0 5 -6 11 -13 13 -6 2 -31 9 -53 15 -39 10 -94 53 -94 72 0
15 44 10 83 -10 37 -19 48 -16 25 7 -7 7 -20 12 -30 12 -31 0 -75 28 -99 61
l-23 32 43 -6 c23 -3 51 -13 62 -23 10 -9 19 -12 19 -7 0 15 -21 30 -52 38
-27 7 -88 66 -88 85 0 16 33 12 72 -9 l37 -18 -6 28 c-7 37 2 37 21 2 31 -57
31 -57 63 -34 32 24 103 40 103 23 0 -19 -62 -73 -92 -79 -20 -4 -27 -10 -24
-20 4 -8 6 -19 6 -24 0 -6 15 1 33 15 39 30 97 45 97 26 0 -13 -55 -69 -83
-85 -12 -7 -16 -16 -11 -28 6 -17 8 -17 28 2 12 11 38 27 59 36 35 15 37 14
37 -4 0 -24 -44 -78 -70 -86 -17 -5 -18 -10 -9 -27 11 -20 11 -20 33 5 21 25
56 47 75 47 24 0 9 -45 -28 -80 -33 -32 -37 -39 -25 -54 12 -17 13 -16 24 4
11 20 66 60 83 60 4 0 7 -12 7 -26 0 -16 -13 -39 -35 -61 -28 -28 -33 -38 -24
-49 15 -18 29 -18 29 0 0 18 56 66 77 66 25 0 8 -59 -27 -95 -30 -31 -30 -32
-12 -49 18 -16 20 -15 32 14 12 30 53 70 71 70 5 0 9 -16 9 -35 0 -24 -9 -45
-30 -68 l-30 -35 24 -15 c23 -15 24 -15 30 14 6 30 46 79 66 79 21 0 11 -78
-15 -108 l-26 -31 23 -15 c27 -19 39 -20 32 -3 -12 33 51 121 68 95 14 -23 8
-75 -12 -101 -26 -32 -25 -34 8 -51 l27 -14 0 38 c0 44 42 101 57 78 13 -22 9
-87 -7 -112 -15 -23 -15 -24 16 -35 30 -10 31 -10 25 15 -8 29 20 94 39 94 26
0 37 -80 16 -118 -9 -17 -7 -22 17 -30 27 -9 27 -9 27 39 0 32 6 54 17 65 15
15 17 14 32 -14 18 -36 20 -65 6 -92 -8 -15 -5 -20 22 -29 17 -6 32 -11 34
-11 1 0 -3 13 -9 30 -12 32 -1 80 20 87 19 7 46 -56 40 -94 -3 -18 -3 -33 1
-33 4 0 18 -3 31 -7 21 -5 22 -4 12 15 -14 26 -14 72 -1 92 17 26 60 -32 60
-81 0 -21 3 -39 8 -39 4 0 18 -3 30 -7 24 -6 24 -6 8 25 -18 35 -20 60 -6 82
17 25 70 -41 70 -85 0 -32 3 -35 29 -35 l28 0 -19 40 c-19 37 -18 80 2 80 19
0 70 -72 70 -99 0 -23 6 -31 28 -39 41 -14 69 3 76 47 7 47 62 104 76 81 14
-23 12 -42 -10 -77 l-20 -33 30 0 c28 0 30 3 30 35 0 44 53 110 70 85 14 -21
12 -50 -4 -82 -16 -30 -14 -31 22 -22 18 5 22 13 22 45 0 47 43 104 60 79 13
-20 13 -66 0 -91 -11 -20 -8 -22 27 -13 18 5 21 11 16 38 -9 58 43 127 61 80
9 -24 7 -63 -5 -85 -9 -18 -8 -19 18 -13 41 10 44 13 33 34 -14 27 -12 56 6
92 l17 32 19 -24 c15 -19 19 -35 15 -66 l-4 -42 28 10 c30 10 37 22 19 33 -24
15 -6 115 21 115 15 0 39 -70 33 -95 -7 -28 -5 -29 31 -13 29 13 30 16 10 42
-22 29 -18 116 5 116 5 0 18 -16 30 -36 16 -25 21 -44 16 -65 l-6 -29 30 15
c36 18 36 20 10 52 -20 26 -24 51 -14 90 5 18 10 21 24 13 22 -12 53 -77 46
-96 -7 -18 4 -18 32 2 l23 15 -26 31 c-25 30 -35 91 -16 102 15 10 51 -27 65
-66 12 -36 13 -37 35 -22 l23 16 -27 28 c-27 28 -48 110 -28 110 19 0 60 -39
73 -70 12 -29 14 -30 32 -14 18 17 18 18 -11 48 -34 36 -51 96 -28 96 22 0 67
-39 78 -68 l10 -25 15 21 c14 21 13 24 -15 47 -27 23 -50 79 -38 91 9 10 67
-26 84 -52 15 -24 18 -25 29 -9 11 15 7 22 -27 54 -36 35 -53 81 -29 81 22 0
70 -31 81 -51 10 -20 12 -20 27 -5 16 16 16 18 -3 28 -36 21 -75 66 -75 87 0
21 1 21 37 6 21 -9 48 -26 60 -37 13 -12 23 -19 23 -16 0 4 3 13 6 21 3 9 -7
22 -30 35 -35 21 -73 68 -63 78 11 11 68 -8 97 -33 17 -14 30 -20 30 -15 0 6
2 17 6 25 3 10 -4 16 -24 20 -29 6 -92 59 -92 78 0 24 93 -3 119 -35 13 -15
17 -12 43 34 15 27 30 50 33 50 2 0 -1 -15 -6 -32z"/>
<path d="M1300 2526 c-142 -30 -219 -118 -205 -234 9 -76 38 -103 185 -176 98
-48 125 -65 125 -81 0 -30 -63 -48 -122 -35 -55 13 -87 29 -147 75 l-46 35 0
-104 0 -103 58 -19 c44 -15 87 -19 188 -19 127 0 132 1 192 32 34 17 62 30 62
28 0 -2 -4 -15 -10 -29 l-10 -26 104 0 103 0 12 55 13 56 81 -3 81 -3 11 -50
10 -50 287 -3 287 -2 -6 131 -6 131 71 -4 c39 -2 73 -6 77 -9 6 -6 -27 -97
-69 -191 l-26 -58 104 0 103 0 13 55 13 55 79 0 c54 0 80 -4 83 -12 2 -7 9
-32 15 -55 l11 -43 164 0 c91 0 165 1 165 3 0 2 -17 44 -38 93 -21 49 -78 196
-127 327 l-88 237 -140 0 -139 0 7 -27 c4 -16 8 -32 9 -38 2 -14 -97 -265
-104 -265 -3 0 -4 16 -2 36 l4 36 -88 -3 -89 -4 -3 64 -3 64 120 -5 121 -5 0
73 0 74 -258 0 -257 0 3 -272 c3 -186 1 -270 -6 -263 -6 6 -52 120 -102 254
-50 134 -95 253 -101 263 -9 16 -24 18 -145 18 l-136 0 7 -27 c4 -16 8 -33 8
-38 1 -17 -125 -335 -132 -335 -4 0 -13 16 -20 35 -17 49 -70 88 -182 136 -54
22 -103 47 -110 55 -41 49 71 62 159 18 29 -14 61 -37 72 -52 l21 -26 -3 110
-3 109 -80 12 c-100 15 -155 15 -225 -1z m1146 -36 c49 -11 142 -23 207 -27
l117 -6 0 -28 0 -29 -120 7 c-118 6 -120 6 -120 -15 0 -15 -6 -22 -20 -22 -30
0 -193 41 -207 53 -7 5 -13 27 -13 48 0 37 1 39 33 39 18 0 73 -9 123 -20z
m646 -5 c10 -21 8 -28 -8 -40 -51 -39 -274 -106 -263 -79 2 5 13 32 23 60 17
47 23 53 65 66 25 8 74 16 109 17 58 1 63 -1 74 -24z m68 -186 c7 -28 10 -52
8 -55 -3 -2 -32 -7 -65 -10 -86 -9 -88 -12 -66 -73 l18 -51 57 6 c32 4 58 4
58 1 0 -4 -19 -24 -42 -45 l-42 -39 22 -57 c12 -31 20 -56 17 -56 -8 0 -110
65 -113 73 -2 4 -17 7 -33 7 -18 0 -29 5 -29 14 0 8 -24 29 -52 47 l-53 34 62
5 c34 3 64 7 67 11 3 3 8 31 12 64 7 56 6 58 -15 52 -14 -3 -24 1 -31 13 -19
35 -11 47 48 69 31 11 75 32 97 45 48 28 57 21 75 -55z m-659 -13 c15 -3 29
-15 32 -26 5 -20 10 -21 91 -14 l86 7 0 -25 c0 -40 -12 -88 -21 -88 -5 0 -9 6
-9 13 0 9 -24 12 -87 12 -65 1 -115 8 -190 29 l-103 29 0 57 0 57 88 -23 c48
-12 99 -25 113 -28z m-330 -104 c4 -4 10 -21 13 -38 7 -31 7 -31 -41 -37 -254
-31 -459 -59 -465 -63 -4 -3 2 23 15 58 l22 63 59 8 c32 5 60 6 63 3 3 -3 1
-18 -5 -35 -6 -16 -8 -32 -5 -35 4 -3 33 -6 66 -6 52 0 58 2 52 18 -17 44 -22
101 -9 106 13 5 38 -17 28 -26 -2 -3 2 -8 11 -11 11 -5 15 1 15 22 0 15 3 30
6 33 6 6 164 -48 175 -60z m-549 -17 c20 -8 32 -71 20 -104 -6 -18 -17 -24
-53 -27 -24 -2 -70 -8 -101 -12 -56 -8 -58 -8 -58 14 0 19 -44 64 -63 64 -14
0 -119 52 -114 57 3 3 21 9 39 14 37 9 304 5 330 -6z"/>
<path d="M2423 1681 c-5 -3 -15 -25 -22 -47 -11 -35 -21 -45 -63 -65 -27 -13
-52 -27 -55 -32 -3 -5 7 -21 22 -37 l28 -29 -27 -44 c-14 -25 -42 -66 -62 -92
-19 -26 -33 -49 -31 -52 12 -12 68 31 101 77 30 42 39 49 54 41 35 -18 46 -39
32 -57 -23 -27 -48 -36 -71 -24 -30 17 -38 1 -10 -21 30 -24 81 -24 113 0 l24
20 43 -34 c24 -19 51 -37 61 -40 20 -6 70 10 70 23 0 5 -32 30 -71 56 -61 41
-69 50 -62 69 4 12 8 42 8 67 0 38 -3 45 -20 48 -11 1 -36 -8 -55 -20 l-35
-23 28 -3 c26 -3 37 -25 17 -37 -10 -6 -70 24 -70 36 0 12 53 53 103 79 55 29
69 56 39 79 -11 9 -22 25 -24 35 -3 20 -48 39 -65 27z"/>
<path d="M2730 1612 l0 -78 -36 -17 c-39 -19 -37 -30 7 -52 l29 -16 0 -100 c0
-98 0 -100 23 -97 12 2 23 9 23 16 1 6 2 16 3 21 2 19 42 18 67 -2 24 -19 27
-19 36 -4 13 24 37 21 87 -12 25 -17 48 -28 53 -25 14 9 34 57 52 127 21 78
13 99 -38 97 -47 -3 -48 -2 -30 32 39 75 35 118 -11 118 -14 0 -24 3 -24 8 3
18 -2 32 -18 47 -15 16 -18 14 -35 -32 -12 -33 -29 -55 -53 -70 -41 -27 -45
-28 -45 -9 0 8 -7 17 -16 20 -8 3 -12 11 -8 17 9 15 -14 56 -43 74 l-23 15 0
-78z"/>
<path d="M1507 1645 c-29 -36 -57 -46 -57 -20 0 20 -39 40 -52 27 -7 -7 -5
-21 6 -43 13 -25 13 -35 4 -47 -10 -12 -7 -19 15 -38 l27 -23 -26 -14 -27 -14
23 -20 22 -21 -22 -7 c-27 -8 -20 -30 9 -29 11 0 21 -3 21 -7 0 -9 -75 -45
-112 -54 -16 -4 -28 -11 -28 -16 0 -13 57 -11 82 2 33 18 35 -1 3 -27 -22 -17
-27 -26 -18 -35 17 -17 48 4 74 50 26 46 68 61 176 61 l67 0 -22 22 -22 23
-83 -22 c-45 -11 -84 -19 -86 -17 -7 6 21 34 48 47 29 14 35 43 9 41 -22 -2
-23 9 -3 26 20 16 19 37 -1 48 -15 8 -14 11 6 25 13 9 20 23 18 36 -2 11 5 26
17 34 16 13 17 17 6 31 -21 25 -44 19 -74 -19z"/>
<path d="M1936 1642 l6 -37 -46 -13 c-26 -6 -57 -12 -71 -12 -17 0 -25 -5 -24
-17 1 -24 19 -71 44 -111 18 -31 23 -33 58 -28 l37 6 0 -89 c0 -91 9 -113 35
-91 11 9 15 36 15 106 l0 94 40 6 c47 8 57 18 39 40 -9 11 -23 14 -46 11 -18
-3 -33 -2 -33 3 0 5 20 12 45 16 25 3 56 15 68 25 l22 19 -29 26 c-22 20 -37
25 -63 22 -28 -3 -32 -1 -27 14 8 26 -13 48 -47 48 -28 0 -29 -1 -23 -38z"/>
<path d="M4399 2970 c-87 -15 -173 -78 -199 -145 -19 -47 -16 -155 5 -195 41
-82 83 -107 244 -145 122 -29 151 -47 151 -92 0 -56 -42 -83 -130 -83 -78 0
-128 22 -150 65 -8 17 -19 33 -23 36 -12 9 -146 -24 -151 -38 -3 -6 7 -35 21
-63 49 -98 147 -145 303 -144 82 0 103 3 155 27 33 16 71 38 83 50 90 84 92
259 4 339 -42 38 -84 56 -208 88 -137 36 -172 73 -125 131 14 18 31 23 80 27
62 4 62 4 101 -37 l39 -41 68 16 c37 8 72 19 77 24 15 15 -34 100 -73 125 -73
48 -183 71 -272 55z"/>
<path d="M4881 2956 c-7 -9 -11 -40 -9 -83 l3 -68 75 0 75 0 0 80 0 80 -66 3
c-48 2 -69 -1 -78 -12z"/>
<path d="M6901 2948 c-36 -95 -231 -752 -227 -764 4 -10 23 -14 70 -14 l65 0
27 85 26 85 134 0 133 0 27 -85 28 -85 83 0 c79 0 83 1 83 23 0 12 -56 191
-123 397 l-123 375 -97 3 c-93 3 -98 2 -106 -20z m167 -443 c-3 -3 -39 -5 -80
-3 l-75 3 34 110 c18 61 36 117 39 125 4 9 24 -36 47 -107 23 -67 39 -125 35
-128z"/>
<path d="M9434 2957 c-3 -8 -4 -45 -2 -83 l3 -69 70 0 70 0 0 80 0 80 -68 3
c-50 2 -69 -1 -73 -11z"/>
<path d="M5416 2765 c-21 -7 -51 -26 -67 -41 l-29 -28 0 26 c0 38 -21 49 -87
46 l-58 -3 0 -295 0 -295 75 0 75 0 5 190 c4 160 8 194 23 216 33 50 100 64
133 28 17 -19 20 -43 24 -228 l5 -206 75 0 75 0 0 230 c-1 257 -6 282 -67 328
-29 22 -100 47 -133 46 -5 0 -27 -6 -49 -14z"/>
<path d="M5977 2769 c-120 -29 -195 -130 -205 -275 -5 -86 14 -161 60 -230
103 -152 340 -132 433 37 28 51 30 60 30 169 0 124 -10 157 -70 228 -49 59
-164 92 -248 71z m126 -153 c62 -57 63 -231 2 -292 -29 -28 -89 -32 -123 -8
-71 50 -79 229 -12 296 37 37 95 39 133 4z"/>
<path d="M7715 2775 c-5 -2 -22 -6 -37 -9 -15 -4 -43 -20 -62 -37 l-35 -30 -3
33 c-3 33 -3 33 -64 36 -43 2 -64 -1 -73 -11 -8 -11 -11 -92 -9 -298 l3 -284
75 0 75 0 5 185 c3 121 9 193 17 207 33 56 106 80 149 49 17 -13 19 -31 24
-228 l5 -213 75 0 75 0 5 190 c4 162 8 195 23 218 32 49 97 61 140 26 l27 -20
2 -207 3 -207 75 0 75 0 3 213 c3 230 -3 273 -44 322 -38 45 -79 62 -148 63
-69 0 -106 -15 -154 -64 -17 -18 -33 -31 -35 -28 -2 2 -11 16 -20 31 -10 15
-30 34 -45 42 -28 14 -109 28 -127 21z"/>
<path d="M8601 2769 c-83 -16 -154 -81 -187 -170 -23 -62 -24 -199 0 -266 72
-213 379 -233 479 -32 14 28 23 57 21 64 -8 21 -136 26 -149 6 -5 -8 -22 -28
-37 -43 -59 -62 -163 -20 -175 70 l-6 42 193 0 192 0 -7 68 c-12 116 -63 205
-137 240 -52 25 -128 33 -187 21z m135 -153 c19 -19 34 -39 34 -45 0 -7 -36
-11 -109 -11 -104 0 -109 1 -104 20 9 36 61 70 105 70 32 0 47 -7 74 -34z"/>
<path d="M9274 2773 c-12 -2 -40 -20 -62 -39 l-41 -34 -3 32 -3 33 -65 0 -65
0 0 -295 0 -295 73 -3 72 -3 0 135 c0 220 28 291 118 303 l42 6 0 83 c0 92 1
90 -66 77z"/>
<path d="M9900 2771 c-84 -18 -155 -84 -183 -172 -25 -75 -22 -204 4 -275 30
-79 90 -137 158 -154 144 -34 270 44 296 183 8 43 6 44 -76 49 -56 4 -56 4
-69 -30 -35 -98 -132 -97 -169 1 -27 71 -2 221 42 252 50 35 106 11 135 -59
10 -22 17 -27 35 -23 12 3 39 9 60 13 46 8 53 21 37 71 -35 109 -149 169 -270
144z"/>
<path d="M10437 2770 c-94 -17 -165 -78 -181 -156 -7 -31 -6 -31 36 -38 24 -4
53 -9 66 -13 18 -4 24 0 33 26 22 62 136 85 184 36 14 -13 25 -33 25 -44 0
-17 -10 -20 -77 -26 -196 -18 -283 -83 -283 -211 0 -78 45 -144 117 -170 76
-27 161 -12 218 38 35 30 35 30 35 7 0 -44 12 -50 86 -47 67 3 69 4 66 28 -2
14 -6 125 -10 247 -8 249 -10 257 -88 300 -45 25 -154 36 -227 23z m163 -346
c0 -40 -30 -93 -61 -109 -41 -22 -105 -19 -129 5 -23 23 -24 30 -9 64 18 38
78 63 157 65 39 1 42 -1 42 -25z"/>
<path d="M11136 2766 c-21 -8 -51 -27 -66 -41 l-29 -27 -3 33 -3 34 -61 3
c-43 2 -64 -1 -73 -11 -8 -11 -11 -92 -9 -298 l3 -284 75 0 75 0 5 193 5 194
37 34 c45 41 85 45 116 11 20 -22 22 -34 24 -227 l3 -205 75 0 75 0 3 200 c3
230 -6 291 -49 340 -46 52 -137 75 -203 51z"/>
<path d="M4881 2757 c-8 -11 -11 -92 -9 -298 l3 -284 75 0 75 0 0 295 0 295
-66 3 c-47 2 -69 -1 -78 -11z"/>
<path d="M9437 2764 c-4 -4 -7 -140 -7 -301 l0 -294 73 3 72 3 0 295 0 295
-65 3 c-36 2 -69 0 -73 -4z"/>
<path d="M6344 2546 c-3 -7 -4 -40 -2 -72 l3 -59 145 0 145 0 3 58 c2 35 -2
64 -9 73 -16 20 -277 21 -285 0z"/>
<path d="M4231 1987 c-8 -11 -11 -120 -9 -398 l3 -384 80 0 80 0 3 157 3 157
132 3 132 3 3 63 c2 38 -2 69 -9 78 -9 11 -41 14 -135 14 l-124 0 0 80 0 80
168 2 167 3 0 75 0 75 -241 3 c-196 2 -243 0 -253 -11z"/>
<path d="M5164 1987 c-3 -8 -4 -45 -2 -83 l3 -69 70 0 70 0 0 80 0 80 -68 3
c-50 2 -69 -1 -73 -11z"/>
<path d="M7032 1988 c-8 -8 -12 -45 -12 -110 l0 -97 -36 21 c-45 26 -134 29
-180 5 -85 -44 -136 -152 -137 -292 0 -106 19 -183 63 -243 62 -86 176 -107
263 -47 l36 24 3 -22 c3 -20 9 -22 73 -22 l70 0 0 395 0 395 -65 3 c-42 2 -70
-2 -78 -10z m-61 -318 c36 -20 49 -63 49 -164 0 -92 -1 -96 -31 -131 -24 -27
-39 -35 -66 -35 -49 0 -68 13 -87 60 -34 85 -11 239 41 269 23 13 69 14 94 1z"/>
<path d="M7855 1988 c-3 -7 -4 -186 -3 -398 l3 -385 70 0 70 0 5 195 c6 206 9
222 56 259 33 26 75 27 105 2 24 -19 24 -23 29 -238 l5 -218 70 0 70 0 3 228
c1 134 -2 244 -8 266 -22 83 -79 123 -174 124 -63 0 -110 -16 -137 -49 -12
-15 -15 -3 -19 102 l-5 119 -68 3 c-48 2 -69 -1 -72 -10z"/>
<path d="M8484 1987 c-3 -8 -4 -45 -2 -83 l3 -69 70 0 70 0 0 80 0 80 -68 3
c-50 2 -69 -1 -73 -11z"/>
<path d="M9831 1873 c-138 -444 -201 -655 -196 -663 4 -6 36 -10 73 -10 l67 0
25 85 25 86 134 -3 134 -3 27 -80 27 -80 78 -3 c43 -2 82 1 87 6 6 6 -40 161
-118 401 l-128 391 -97 0 -98 0 -40 -127z m205 -325 c5 -16 -3 -18 -75 -18
-45 0 -81 3 -81 6 0 4 17 63 37 131 l38 124 37 -113 c21 -62 41 -121 44 -130z"/>
<path d="M12621 1986 c-7 -9 -11 -40 -9 -83 l3 -68 75 0 75 0 0 80 0 80 -66 3
c-48 2 -69 -1 -78 -12z"/>
<path d="M13931 1986 c-7 -9 -11 -40 -9 -83 l3 -68 75 0 75 0 0 80 0 80 -66 3
c-48 2 -69 -1 -78 -12z"/>
<path d="M13639 1952 l-56 -3 -7 -46 c-3 -25 -6 -58 -6 -74 0 -25 -4 -28 -37
-31 l-38 -3 0 -65 0 -65 33 -3 32 -3 0 -169 c0 -132 4 -178 16 -210 26 -66
100 -98 195 -85 l50 7 -3 62 -3 61 -43 3 c-57 4 -62 19 -62 192 l0 139 48 3
47 3 0 65 0 65 -47 3 -48 3 0 74 c0 41 -3 75 -7 77 -5 2 -33 2 -64 0z"/>
<path d="M4984 1791 c-23 -10 -48 -29 -57 -41 -15 -22 -16 -22 -19 11 l-3 34
-65 0 -65 0 -3 -298 -2 -298 72 3 73 3 5 170 c6 217 21 248 120 264 l35 6 3
83 3 82 -28 0 c-15 0 -47 -9 -69 -19z"/>
<path d="M5643 1800 c-84 -17 -145 -68 -185 -155 -19 -42 -23 -67 -23 -150 0
-118 23 -183 86 -239 84 -77 235 -85 331 -20 42 30 86 91 95 134 6 35 3 36
-84 43 -51 4 -63 2 -63 -10 0 -8 -13 -28 -29 -44 -23 -23 -38 -29 -71 -29 -67
0 -96 29 -114 113 l-6 27 190 0 190 0 0 53 c0 67 -21 138 -55 187 -49 70 -162
109 -262 90z"/>
<path d="M6345 1805 c-5 -2 -22 -6 -37 -9 -15 -4 -43 -20 -62 -37 l-35 -30 -3
33 -3 33 -65 0 -65 0 0 -295 0 -295 70 0 70 0 5 185 c3 120 9 193 17 207 40
68 124 84 156 29 8 -14 14 -90 17 -221 l5 -200 70 0 70 0 0 235 c0 270 -5 292
-79 334 -38 22 -108 38 -131 31z"/>
<path d="M7465 1805 c-5 -2 -27 -6 -48 -10 -45 -7 -105 -57 -123 -102 -18 -43
-18 -127 1 -163 30 -57 87 -87 212 -111 36 -6 69 -19 79 -30 16 -18 16 -20 -1
-39 -27 -30 -118 -28 -149 3 -13 13 -25 28 -27 34 -3 8 -24 7 -74 -1 -82 -13
-89 -26 -53 -91 17 -30 38 -48 83 -70 52 -26 71 -30 141 -30 153 0 244 75 244
200 0 62 -24 113 -68 142 -18 12 -76 32 -128 44 -117 27 -144 48 -108 83 34
34 120 13 136 -34 3 -10 17 -10 68 2 61 13 65 15 63 41 -4 66 -81 121 -183
130 -30 3 -59 4 -65 2z"/>
<path d="M9025 1801 c-39 -10 -68 -26 -86 -47 -13 -16 -14 -15 -19 12 -5 28
-7 29 -66 32 -43 2 -64 -1 -73 -11 -8 -11 -11 -115 -9 -393 l3 -379 75 0 75 0
3 111 3 111 46 -24 c118 -59 243 3 289 145 25 75 25 217 1 287 -20 58 -66 119
-105 139 -36 18 -100 26 -137 17z m63 -163 c11 -13 25 -36 31 -51 14 -35 14
-147 1 -181 -28 -74 -99 -89 -156 -32 -33 33 -34 37 -34 110 0 85 16 135 51
160 34 23 81 20 107 -6z"/>
<path d="M10545 1805 c-5 -2 -27 -6 -48 -10 -45 -7 -105 -57 -123 -102 -18
-43 -18 -127 1 -163 30 -57 87 -87 212 -111 36 -6 69 -19 79 -30 16 -18 16
-20 -1 -39 -27 -30 -118 -28 -149 3 -13 13 -25 28 -27 34 -3 8 -24 7 -74 -1
-82 -13 -89 -26 -52 -91 16 -29 39 -48 82 -70 51 -26 69 -30 140 -30 71 0 90
4 141 30 74 38 104 85 104 165 0 111 -46 156 -196 191 -117 27 -144 48 -108
83 34 34 120 13 136 -34 3 -10 17 -10 68 2 61 13 65 15 63 41 -4 66 -81 121
-183 130 -30 3 -59 4 -65 2z"/>
<path d="M11075 1805 c-5 -2 -27 -6 -48 -10 -45 -7 -105 -57 -123 -102 -18
-42 -18 -115 0 -157 25 -60 83 -92 213 -117 36 -6 69 -19 79 -30 16 -18 16
-20 -1 -39 -27 -30 -118 -28 -149 3 -13 13 -25 28 -27 34 -3 8 -24 7 -74 -1
-83 -14 -89 -25 -51 -91 39 -66 115 -100 221 -100 69 0 89 4 140 30 75 38 105
84 105 165 0 110 -46 156 -193 190 -84 20 -127 40 -127 61 0 20 35 39 71 39
38 0 71 -20 81 -50 7 -21 132 10 136 33 6 30 -43 93 -90 115 -40 19 -140 35
-163 27z"/>
<path d="M11637 1799 c-58 -14 -91 -34 -134 -83 -55 -63 -77 -135 -71 -239 3
-64 10 -94 32 -137 54 -108 111 -144 226 -145 65 0 82 4 128 29 101 56 148
156 140 300 -3 52 -12 98 -25 127 -24 54 -83 116 -127 134 -44 18 -125 25
-169 14z m107 -140 c41 -19 61 -73 60 -164 0 -121 -30 -165 -111 -165 -74 0
-122 88 -109 198 14 116 78 168 160 131z"/>
<path d="M12230 1797 c-136 -38 -215 -204 -180 -379 14 -75 32 -112 74 -156
49 -53 82 -66 167 -66 67 -1 81 3 125 29 37 23 55 44 76 85 52 106 48 117 -41
121 -64 4 -64 4 -74 -26 -31 -97 -137 -102 -168 -8 -27 84 -7 217 39 253 13
11 38 20 54 20 34 0 78 -39 78 -69 0 -11 4 -22 9 -25 11 -7 123 13 134 23 10
10 -16 94 -42 129 -43 60 -163 93 -251 69z"/>
<path d="M13082 1799 c-86 -15 -147 -59 -171 -122 -21 -55 -16 -64 42 -73 28
-5 56 -8 61 -9 5 0 17 14 26 30 21 39 54 55 110 55 57 0 90 -22 90 -60 0 -28
-1 -29 -67 -35 -187 -17 -270 -68 -287 -175 -18 -114 75 -220 192 -220 47 0
113 23 142 50 l30 28 6 -34 6 -34 69 0 c37 0 70 3 72 8 2 4 1 113 -2 242 -6
222 -7 237 -29 272 -14 22 -40 45 -65 56 -51 24 -152 34 -225 21z m158 -360
c0 -33 -6 -47 -34 -75 -29 -29 -41 -34 -82 -34 -56 0 -84 20 -84 60 0 15 9 35
19 44 25 22 95 44 144 45 37 1 37 1 37 -40z"/>
<path d="M14388 1796 c-121 -33 -191 -141 -192 -296 0 -96 25 -168 82 -231 45
-51 109 -79 177 -79 53 0 133 29 171 62 129 113 137 363 16 481 -64 63 -165
88 -254 63z m131 -142 c34 -24 51 -75 51 -154 0 -114 -36 -170 -108 -170 -48
0 -71 16 -93 63 -37 82 -19 218 34 259 28 22 86 23 116 2z"/>
<path d="M15076 1795 c-21 -7 -51 -26 -66 -40 l-29 -27 -3 33 -3 34 -65 0 -65
0 0 -295 0 -295 70 0 70 0 5 185 c3 121 9 193 17 207 40 68 124 84 156 29 8
-14 14 -90 17 -221 l5 -200 70 0 70 0 3 213 c3 230 -3 273 -44 322 -49 57
-137 81 -208 55z"/>
<path d="M5165 1788 c-3 -7 -4 -141 -3 -298 l3 -285 70 0 70 0 0 295 0 295
-68 3 c-48 2 -69 -1 -72 -10z"/>
<path d="M8487 1794 c-4 -4 -7 -140 -7 -301 l0 -294 73 3 72 3 0 295 0 295
-65 3 c-36 2 -69 0 -73 -4z"/>
<path d="M12621 1787 c-8 -11 -11 -92 -9 -298 l3 -284 75 0 75 0 0 295 0 295
-66 3 c-47 2 -69 -1 -78 -11z"/>
<path d="M13931 1787 c-8 -11 -11 -92 -9 -298 l3 -284 75 0 75 0 0 295 0 295
-66 3 c-47 2 -69 -1 -78 -11z"/>
</g>
</svg>
